PathFileType	4	(X/Y/Z)	 s03c0401.trc
DataRate	CameraRate	NumFrames	NumMarkers	Units	OrigDataRate	OrigDataStartFrame	OrigNumFrames
200	200	4	52	mm	200	251	2000
Frame#	Time	racr			lacr			c7			jug			rlel			rdr			llel			ldr			s2			lic			ric			lasi			rasi			rpsi			lpsi			rgt			lgt			rth1			rth2			rth3			rth4			rlfc			rmfc			rsh1			rsh2			rsh3			rsh4			rlmal			rmmal			rcal			rtoe			rmt5			rmt1			lth1			lth2			lth4			lth3			llfc			lmfc			lsh1			lsh2			lsh3			lsh4			llmal			lmmal			lcal			ltoe			lmt1			lmt5			SBIKE			LBIKE			RBIKE			
		X1	Y1	Z1	X2	Y2	Z2	X3	Y3	Z3	X4	Y4	Z4	X5	Y5	Z5	X6	Y6	Z6	X7	Y7	Z7	X8	Y8	Z8	X9	Y9	Z9	X10	Y10	Z10	X11	Y11	Z11	X12	Y12	Z12	X13	Y13	Z13	X14	Y14	Z14	X15	Y15	Z15	X16	Y16	Z16	X17	Y17	Z17	X18	Y18	Z18	X19	Y19	Z19	X20	Y20	Z20	X21	Y21	Z21	X22	Y22	Z22	X23	Y23	Z23	X24	Y24	Z24	X25	Y25	Z25	X26	Y26	Z26	X27	Y27	Z27	X28	Y28	Z28	X29	Y29	Z29	X30	Y30	Z30	X31	Y31	Z31	X32	Y32	Z32	X33	Y33	Z33	X34	Y34	Z34	X35	Y35	Z35	X36	Y36	Z36	X37	Y37	Z37	X38	Y38	Z38	X39	Y39	Z39	X40	Y40	Z40	X41	Y41	Z41	X42	Y42	Z42	X43	Y43	Z43	X44	Y44	Z44	X45	Y45	Z45	X46	Y46	Z46	X47	Y47	Z47	X48	Y48	Z48	X49	Y49	Z49	X50	Y50	Z50	X51	Y51	Z51	X52	Y52	Z52	
251	1.2550	468.403259	1452.395084	-55.804524	464.836358	1469.556203	-371.615633	382.844173	1534.023350	-212.441350	429.482883	1369.550681	-213.675911	515.695495	1181.569182	34.770459	733.636509	985.694543	-4.999137	533.252001	1207.163975	-447.500646	736.641169	980.017667	-431.426450	-105.951494	1203.492199	-239.772831	89.140567	1221.083376	-413.369533	61.797846	1237.063959	-45.281102	103.483716	1140.789087	-373.717016	84.349316	1169.562023	-88.879494	-79.792931	1254.563574	-193.551262	-68.309325	1250.829853	-276.691982	3.727303	1155.486932	-29.259161	21.266667	1104.610807	-430.527508	129.479979	1069.942160	-10.521460	218.281876	1069.984055	-6.477143	294.527489	1028.899878	-6.741097	228.062162	1103.531030	-19.829739	416.419817	968.880427	-25.609234	427.163313	958.077332	-151.439751	359.307207	813.534490	-12.488076	342.825731	728.279830	-33.657792	285.175440	661.453272	-38.884273	369.491178	720.451163	-60.355226	220.618234	546.867642	-66.325740	244.076404	562.866300	-154.495972	152.139066	504.281864	-109.177905	462.132902	491.862599	-111.901696	343.594809	477.475566	-41.751145	368.473191	493.133416	-156.568932	86.760695	959.481730	-450.901331	143.629360	893.787739	-454.385005	176.474027	909.962792	-449.630449	161.075007	806.792935	-445.447621	232.819695	695.771906	-428.318931	236.503373	684.754225	-305.945080	142.375541	547.145755	-451.136789	128.157308	465.244215	-433.021675	69.981503	395.255472	-425.431002	156.711475	455.197975	-408.238692	10.295833	281.422766	-403.465172	NaN	NaN	NaN	-58.656548	234.422950	-354.154171	249.244350	217.938546	-355.915994	155.964970	216.803099	-313.095789	129.482706	197.280338	-428.259043	-214.810415	946.128796	-230.542343	-6.087131	83.998465	-435.001532	-11.757625	81.415401	-34.558440	
252	1.2600	468.360642	1452.396760	-55.811600	464.820337	1469.547896	-371.610998	382.821205	1534.017730	-212.456602	429.498219	1369.554685	-213.651341	515.666687	1181.566620	34.771226	733.582029	985.721367	-5.069370	533.200956	1207.145264	-447.569969	736.640356	980.099453	-431.365066	-105.975245	1203.477685	-239.785177	89.116542	1221.082139	-413.378805	61.777617	1237.040928	-45.290599	103.493774	1140.800301	-373.737537	84.328767	1169.559780	-88.894632	-79.816483	1254.536948	-193.529368	-68.342345	1250.808407	-276.691712	3.713630	1155.447344	-29.273259	21.238141	1104.593621	-430.519211	129.477905	1069.919033	-10.531805	218.271525	1069.962812	-6.479919	294.529980	1028.882072	-6.752552	228.074510	1103.518302	-19.829127	416.439672	968.866056	-25.635366	427.147887	958.073511	-151.428669	359.307669	813.543219	-12.501540	343.134782	728.263763	-33.334924	285.165385	661.468642	-38.864240	369.480646	720.457890	-60.363486	220.627201	546.874585	-66.330799	244.068323	562.866599	-154.497297	152.144499	504.276396	-109.177741	462.121377	491.873694	-111.902454	343.578564	477.478200	-41.748219	368.467454	493.139975	-156.581693	86.743027	959.455907	-450.891941	143.611200	893.751773	-454.373495	176.441181	909.942312	-449.633603	161.053865	806.758688	-445.440809	232.802383	695.759163	-428.303577	236.478321	684.725669	-305.953006	142.378850	547.125689	-451.109739	128.149148	465.246066	-433.026069	69.983917	395.244683	-425.415759	156.700858	455.174509	-408.197047	10.298662	281.409210	-403.450769	NaN	NaN	NaN	-58.662016	234.399842	-354.139581	249.239592	217.957806	-355.914958	155.970226	216.796806	-313.083017	129.480018	197.288929	-428.261133	-214.803763	946.115697	-230.543007	-6.076281	83.986827	-434.994564	-11.780446	81.421655	-34.563168	
253	1.2650	468.374661	1452.356605	-55.841108	464.842464	1469.548493	-371.599363	382.782428	1533.990912	-212.451677	429.512596	1369.584706	-213.627558	515.609989	1181.555030	34.819033	733.472464	985.813654	-5.216673	533.115104	1207.159483	-447.685398	736.619584	980.225957	-431.260479	-105.996761	1203.448238	-239.670098	89.088202	1221.071122	-413.360856	61.757851	1237.022032	-45.302894	103.431815	1140.801029	-373.707619	84.307361	1169.568352	-88.910121	-79.862263	1254.511528	-193.511815	-68.385965	1250.787507	-276.676037	3.707154	1155.408343	-29.273928	21.211811	1104.569610	-430.511477	129.449806	1069.876867	-10.538893	218.269152	1069.930313	-6.506102	294.511398	1028.868566	-6.745331	228.054048	1103.490907	-19.833938	416.411584	968.876852	-25.645028	427.137125	958.083870	-151.452094	359.305000	813.542222	-12.524812	343.142694	728.279022	-33.341468	285.155637	661.471257	-38.899838	369.487528	720.457729	-60.381424	220.616298	546.895345	-66.335786	244.061325	562.872166	-154.498433	152.131310	504.280094	-109.183143	462.119290	491.877687	-111.911048	343.569517	477.479489	-41.754959	368.461755	493.145280	-156.593438	86.706757	959.432006	-450.886958	143.596443	893.724473	-454.355987	176.418488	909.909984	-449.616591	161.027477	806.731257	-445.437555	232.797280	695.747539	-428.294008	236.281966	684.813068	-306.154335	142.371821	547.122869	-451.115753	128.149735	465.225105	-433.025085	69.977550	395.231699	-425.410277	156.696621	455.179191	-408.218744	10.293913	281.394950	-403.444739	NaN	NaN	NaN	-58.649989	234.382740	-354.134221	249.236508	217.942631	-355.913877	155.968214	216.793795	-313.085249	129.479976	197.289108	-428.261221	-214.791501	946.072317	-230.490661	-6.072170	83.972165	-434.997333	-11.759655	81.421021	-34.557072	
254	1.2700	468.371645	1452.289890	-55.907921	464.936801	1469.585546	-371.538270	382.729525	1533.984470	-212.428349	429.578107	1369.637773	-213.571654	515.523508	1181.561591	34.939483	733.347128	985.896065	-5.400600	532.983723	1207.196621	-447.872779	736.582927	980.348135	-431.051504	-106.007909	1203.417351	-239.658984	89.055839	1221.046542	-413.333257	61.727546	1237.004695	-45.313784	103.384471	1140.811629	-373.631420	84.289108	1169.596801	-88.962697	-79.884693	1254.476587	-193.501237	-68.425953	1250.763248	-276.672981	3.674432	1155.365810	-29.274240	21.170614	1104.539245	-430.520711	129.422564	1069.863236	-10.557358	218.246705	1069.917652	-6.516799	294.508573	1028.845929	-6.771696	228.018398	1103.469278	-19.830553	416.398844	968.887408	-25.681338	427.122719	958.091549	-151.486617	359.296161	813.550351	-12.522739	343.108236	728.302272	-33.357935	285.148299	661.472768	-38.902078	369.458676	720.473812	-60.406945	220.598179	546.901108	-66.333383	244.057352	562.876769	-154.503229	152.127761	504.287591	-109.176889	462.152947	491.804995	-112.127601	343.553988	477.527814	-41.748688	368.440087	493.126413	-156.333674	86.676623	959.415373	-450.882089	143.571140	893.710792	-454.345639	176.391270	909.886711	-449.611436	161.002560	806.707298	-445.423046	232.792543	695.735951	-428.293650	236.266199	684.789907	-306.154854	142.365575	547.101670	-451.103327	128.145169	465.228671	-433.021277	69.980412	395.226173	-425.409284	156.707461	455.173800	-408.217851	10.300018	281.390989	-403.449116	NaN	NaN	NaN	-58.661089	234.380208	-354.141519	249.242246	217.937151	-355.905113	155.949492	216.771828	-313.051709	129.488690	197.278284	-428.243494	-214.798639	946.063322	-230.483105	-6.089939	83.981813	-434.982639	-11.766739	81.422463	-34.557966	
